<svg width="64" height="64" viewBox="0 0 64 64" fill="none" xmlns="http://www.w3.org/2000/svg">
<rect width="64" height="64" transform="translate(64) rotate(90)" fill="#FCFAFC"/>
<ellipse cx="32" cy="32" rx="6" ry="6" transform="rotate(90 32 32)" fill="#757575"/>
<path d="M29.785 4.79943C30.585 3.73352 32.1841 3.73352 32.9841 4.79943L52.365 30.6215C53.3545 31.9399 52.4139 33.8221 50.7654 33.8221L12.0036 33.8221C10.3552 33.8221 9.41454 31.9399 10.4041 30.6215L29.785 4.79943Z" fill="#46503E"/>
<path d="M29.785 22.7994C30.585 21.7335 32.1841 21.7335 32.9841 22.7994L52.365 48.6215C53.3545 49.9399 52.4139 51.8221 50.7654 51.8221L12.0036 51.8221C10.3552 51.8221 9.41454 49.9399 10.4041 48.6215L29.785 22.7994Z" fill="#46503E"/>
<path d="M24.3845 48.6682L38.3845 48.6682L38.3845 58.6682L24.3845 58.6682L24.3845 48.6682Z" fill="#46503E"/>
</svg>
